<?xml version="1.0" encoding="utf-8"?>
<!-- Generator: Adobe Illustrator 22.1.0, SVG Export Plug-In . SVG Version: 6.00 Build 0)  -->
<svg version="1.1" id="Layer_1" xmlns="http://www.w3.org/2000/svg" xmlns:xlink="http://www.w3.org/1999/xlink" x="0px" y="0px"
	 viewBox="0 0 128 128" style="enable-background:new 0 0 128 128;" xml:space="preserve">
<style type="text/css">
	.st0{fill:#5680C0;}
	.st1{fill:#83AF4F;}
</style>
<g>
	<path class="st0" d="M128,64c-0.1,35.3-29.3,64.5-64.6,64C28.2,127.5,3,100.2,0.3,69.8C-3.5,28,32.6-0.6,65.9,0
		C99.8,0.6,128.1,29.3,128,64z M60.5,4.3C42.9,4.7,26.4,13.9,14.6,31C5.2,44.6,2.8,60,6,76.1c3,15.3,11.5,27.6,24.2,36.5
		c13.7,9.6,29,12.6,45.6,9.4c15.6-3,27.7-11.2,36.7-23.9c10-14.1,12.9-30.2,9.5-47.1C117.7,29.2,97.5,4.5,60.5,4.3z"/>
	<path class="st1" d="M12.3,75.6c-1.5-7.1-1.7-14.3-0.3-21.4c2.2-11.5,8.7-20.6,16.5-28.8c2.8-3,6.2-5.3,9.3-7.9
		c0.3-0.2,0.9-0.3,1.1-0.1c0.2,0.2,0.3,0.8,0.1,1.1c-7.1,14.3-4,28.1,8.4,38C58.3,65.1,71.3,71,80.7,81.6
		c10.1,11.2,4.2,31-10.1,34.5c-15.2,3.7-27.9-1.8-39.6-10.6C21.7,98.3,11.9,82.2,12.3,75.6z"/>
	<path class="st0" d="M116.9,54.5c2,8.8,0.9,17.5-2.1,25.7c-3.6,10.1-10.6,18-18.5,25.2c-0.9,0.8-1.8,1.7-2.8,2.4
		c-3.3,2.3-4.2,2.4-3.7,1.1c0.6-1.8,1.6-3.4,2-5.2c3.6-16-1.1-26.7-14.8-36.1c-10.4-7.2-21.8-13.2-30.3-23
		c-3.8-4.3-4.1-18.2-1.1-23.4C53.1,8.6,67.2,8.7,78.4,12c17.8,5.3,29.4,17.1,36.2,34C115.7,48.7,116.1,51.7,116.9,54.5z"/>
</g>
</svg>
